<svg xmlns="http://www.w3.org/2000/svg" viewBox="0 0 1080 670">
  <defs>
    <style>
      .a{fill:#005493}.b{fill:#ccc}.c{fill:#005494}
    </style>
  </defs>
  <path d="M117 0c-17 38-4 72 12 106 23 50 55 94 89 136a1682 1682 0 0 0 424 367l-20-7-21-8c-154-61-297-141-425-247-52-43-100-90-138-147-18-28-34-57-37-92-5-40 13-72 50-90C68 9 87 4 106 2" class="a"/>
  <path d="M733 649c-16 8-34-7-37-29l-7-58c-3-20-14-32-33-35-24-4-40-19-57-33-4-3-6-6-5-11a7 7 0 0 0-1-6c-7-7-4-14 0-22 8-13 3-24-12-29-3-1-7-3-7 3 1 5-3 5-6 5-7 1-13-2-18-5a73 73 0 0 0-53-11c-20 2-40 4-60-7-11-6-19-15-27-25a111 111 0 0 0-31-29c0 7 5 12 5 20l-27-35c-13-18-13-38-8-59 3-11 5-22-3-33-3-5 0-9 1-14 2-7 2-14-3-21s-10-8-18-3a60 60 0 0 0-9 7c-3 2-5 5-9 6-2-4 0-7 2-9 7-12 14-23 26-32 6-5 13-10 17-18 4-6 9-9 16-4a6 6 0 0 0 3 1l53-2-3-3c-3-3-11-2-10-7s8-4 12-5c9-1 18 1 26 6 3 2 3 3 1 7a97 97 0 0 0-13 22c-4 9 0 18 12 17 7-1 14-4 21 0 6 3 11 8 18 9l-6-30c-1-4-2-9 2-12 3-3 7-1 11 1 5 2 9 5 11-4 1-4 5-5 9-4 10 3 19 3 29 4 14 2 17 9 8 21l-9 10-10 11c11 0 20 4 29-2-1 8-6 12-12 13-4 1-6 2-7 6-6 19-16 36-15 56a10 10 0 0 1-2 4c-8 18-10 35 2 52 1 2 3 5 0 6-3 2-5 1-7-2-8-10-19-11-31-11-3 1-7 1-8 4-2 7-7 8-13 8-6 1-10 4-12 10-6 14-7 27 3 40 3 5 8 7 14 9 8 2 14 0 17-9l4-8c2-3 3-7 8-7 5 1 6 5 7 9a80 80 0 0 0 2 9c2 8 7 11 15 8 10-4 16-2 20 8a23 23 0 0 0 4 5c9 11 8 11 22 5 4-2 10-2 15-2 4 0 5-1 4-6-2-14 2-18 16-21l16-2c7-1 14-2 20-6 9-6 19-8 30-4s22 6 34 3c10-3 20-2 29 5 6 4 13 5 21 3l28-5c12-2 19 1 23 12 9 26 8 51-1 76l-29 73c-4 9-10 16-18 23-3 2-5 4-2 8 2 4 0 8-4 11l-17 16a41 41 0 0 0-6 48z" class="a"/>
  <path d="M896 368l-3-56 27 23c47 41 91 86 125 139 17 26 30 52 34 83 7 47-17 79-56 96-26 12-54 16-82 17-18 1-36-1-54-1 23-38 8-73-7-109-5-12-11-23-18-34-3-6-3-10 0-15 19-38 30-78 33-122" class="b"/>
  <path d="M743 108c31 4 49 25 68 44 20 20 35 45 56 65 4 4 8 12 3 16-7 6-3 12-5 19-3 10-7 12-17 8-19-7-35-20-47-37-18-26-32-55-52-80-8-11-1-24-6-35z" class="a"/>
  <path d="M633 86a105 105 0 0 0 19-2c5-1 6-2 2-6-6-5-12-8-20-7h-39c-3 0-6-3-9-5-7-5-15-5-23-7-3-1-7-1-7-6 1-4 5-4 8-4 37 0 73 4 107 17 14 5 28 7 40 14 3 2 7 3 9 6-9 1-10 2-5 9 2 5 7 8 11 10a32 32 0 0 1 15 15c1 3 2 6 0 9-3 4-6 2-9 1-10-3-18-9-28-11-4-1-3-5-3-7 0-4 0-8-4-9-12-5-23-16-38-9-10 5-18 1-26-8z" class="c"/>
  <path d="M477 74a393 393 0 0 0-45 21c-3 1-5 0-7-1-40-27-82-51-126-72l-2-3c62 13 120 32 180 55z" class="b"/>
  <path d="M547 133c-7 0-13-3-18-7-15-15-34-15-53-13-3 1-7 3-10 0-1-4 1-8 3-11 10-12 24-20 37-17 11 3 23 4 34 10a17 17 0 0 1 9 10l6 17c3 8 1 11-8 11z" class="c"/>
  <path fill="#055795" d="M499 135l1 2c-2 5 3 10 0 12-5 4-12 3-18 4-2 0-4-1-4-3-2-6-7-9-13-9a13 13 0 0 1-4-2c-3-1-6-4-6-7 1-4 5-2 8-2a11 11 0 0 1 6 2c9 6 19 6 30 3z"/>
  <path fill="#0a5a97" d="M525 360c1-6 4-7 7-9 12-4 25-1 37 0 2 0 3 1 2 3 0 2-2 3-4 3l-24 3h-18z"/>
  <path fill="#0a5b98" d="M567 179c4 3 13-2 13 5 0 6-9 6-14 7-4 1-5-4-5-7s1-6 6-5z"/>
  <path fill="#15629c" d="M587 357c1-7 5-11 11-14a2 2 0 0 1 2 2c-1 7-6 10-13 12z"/>
  <path fill="#1a659e" d="M385 379c8 2 13 5 16 13a39 39 0 0 1-16-13z"/>
</svg>
